---------------------------- SEXY BACK HDTV --------------------------------

Format                           : AVI
Format/Info                      : Audio Video Interleave
File size                        : 139 MiB
Duration                         : 4mn 25s
Overall bit rate                 : 4 397 Kbps
Writing application              : VirtualDubMod 1.5.10.2 (build 2542/release)
Writing library                  : VirtualDubMod build 2542/release

Video
ID                               : 0
Format                           : MPEG-4 Visual
Format settings, BVOP            : Yes
Format settings, QPel            : No
Format settings, GMC             : No warppoints
Format settings, Matrix          : Default (H.263)
Muxing mode                      : Packed bitstream
Codec ID                         : DX50
Codec ID/Hint                    : DivX 5
Duration                         : 4mn 25s
Bit rate                         : 4 003 Kbps
Width                            : 1 280 pixels
Height                           : 616 pixels
Display aspect ratio             : 2.078
Frame rate                       : 24.000 fps
Color space                      : YUV
Chroma subsampling               : 4:2:0
Bit depth                        : 8 bits
Scan type                        : Progressive
Bits/(Pixel*Frame)               : 0.212
Stream size                      : 127 MiB (91%)
Writing library                  : DivX 6.2.5 (UTC 2006-06-16)

Audio
ID                               : 1
Format                           : AC-3
Format/Info                      : Audio Coding 3
Mode extension                   : CM (complete main)
Codec ID                         : 2000
Duration                         : 4mn 25s
Bit rate mode                    : Constant
Bit rate                         : 384 Kbps
Channel(s)                       : 2 channels
Channel positions                : Front: L R
Sampling rate                    : 48.0 KHz
Video delay                      : 7ms
Stream size                      : 12.2 MiB (9%)
Alignment                        : Split accross interleaves
Interleave, duration             : 42 ms (1.00 video frame)
Interleave, preload duration     : 500 ms

===================================================================================
                          http://bayimg.com/baIidaadc
===================================================================================

===================================================================================
                         
===================================================================================